Coordinates
version=1
nRows=9
nColumns=24
inDegrees=yes

Units are S.I. units (second, meters, Newtons, ...)
Angles are in degrees.

endheader
time	pelvis_tilt	pelvis_list	pelvis_rotation	pelvis_tx	pelvis_ty	pelvis_tz	hip_flexion_r	hip_adduction_r	hip_rotation_r	knee_angle_r	ankle_angle_r	subtalar_angle_r	mtp_angle_r	hip_flexion_l	hip_adduction_l	hip_rotation_l	knee_angle_l	ankle_angle_l	subtalar_angle_l	mtp_angle_l	lumbar_extension	lumbar_bending	lumbar_rotation
     -0.00166667	    -13.68780109	     10.41161717	     -5.63695052	     -0.88746761	      0.74713719	     -0.28805353	     36.04290299	    -26.31697245	    -46.75716615	    -55.71536965	     39.57870336	     25.61205861	      0.00000000	     31.93058050	     -2.39024471	    -16.07509794	    -57.11946112	   -132.28832766	   -226.30394303	      0.00000000	    -10.58003969	      2.63474065	     -3.54872114
      0.00666667	    -13.74079168	     10.31544325	     -5.47800053	     -0.88566908	      0.74689502	     -0.28664308	     35.76582694	    -26.25153162	    -47.09016649	    -55.74398922	     39.80236927	     25.73977500	      0.00000000	     32.75091786	     -2.68572343	    -15.98212038	    -57.97262924	   -132.29561512	   -226.60972074	      0.00000000	    -10.54357929	      2.61586089	     -3.25224082
      0.01500000	    -13.80220878	     10.23998712	     -5.32573161	     -0.88388227	      0.74666637	     -0.28529283	     35.51234482	    -26.20799986	    -47.41206808	    -55.77728290	     39.99590236	     25.86095509	      0.00000000	     33.55805157	     -2.94671233	    -15.95067183	    -58.65990216	   -132.26769312	   -226.90425624	      0.00000000	    -10.49706834	      2.57432163	     -2.95999131
      0.02333333	    -13.86070180	     10.17884138	     -5.18112023	     -0.88209551	      0.74646694	     -0.28399087	     35.26594610	    -26.16940006	    -47.70631391	    -55.79817882	     40.19425245	     25.98691993	      0.00000000	     34.33912343	     -3.18609254	    -15.98902697	    -59.18737611	   -132.19544757	   -227.16842180	      0.00000000	    -10.45575407	      2.51632451	     -2.67571628
      0.03166667	    -13.92185440	     10.12276590	     -5.04154373	     -0.88031821	      0.74628367	     -0.28273075	     35.03085331	    -26.12789993	    -47.97874363	    -55.81067430	     40.38331802	     26.09445371	      0.00000000	     35.10372903	     -3.41026869	    -16.08067229	    -59.56234368	   -132.07216922	   -227.39118867	      0.00000000	    -10.41536556	      2.45082115	     -2.39731310
      0.04000000	    -13.98670257	     10.07539786	     -4.90972274	     -0.87856019	      0.74611483	     -0.28151549	     34.81359909	    -26.08529544	    -48.22496012	    -55.81825979	     40.57595795	     26.19069768	      0.00000000	     35.85237875	     -3.61658401	    -16.23542007	    -59.78519727	   -131.90361641	   -227.57649762	      0.00000000	    -10.37335127	      2.37443180	     -2.12225249
      0.04833333	    -14.05299931	     10.03941743	     -4.78363963	     -0.87680017	      0.74597519	     -0.28034002	     34.59857656	    -26.04268733	    -48.45491980	    -55.79924247	     40.76996744	     26.28601095	      0.00000000	     36.57238083	     -3.80717926	    -16.45971030	    -59.84703962	   -131.70982135	   -227.73692727	      0.00000000	    -10.33003760	      2.28332102	     -1.85358345
      0.05666667	    -14.12132018	     10.00902116	     -4.66287515	     -0.87505195	      0.74584148	     -0.27920999	     34.39732062	    -26.00214646	    -48.66469837	    -55.78225141	     40.96730845	     26.36999801	      0.00000000	     37.27147467	     -3.98279491	    -16.74452272	    -59.76425206	   -131.49020593	   -227.86451600	      0.00000000	    -10.28713168	      2.18647554	     -1.58978065
      0.06500000	    -14.19409696	      9.97961354	     -4.54017087	     -0.87332013	      0.74572001	     -0.27812852	     34.20253070	    -25.95979219	    -48.86789536	    -55.75487861	     41.15813602	     26.43887948	      0.00000000	     37.95004988	     -4.15021750	    -17.09103747	    -59.53602722	   -131.23800614	   -227.96757088	      0.00000000	    -10.24302053	      2.08722109	     -1.33943311
